<?xml version="1.0" encoding="UTF-8"?>
<svg width="18px" height="18px" viewBox="0 0 18 18" version="1.1" xmlns="http://www.w3.org/2000/svg" xmlns:xlink="http://www.w3.org/1999/xlink">
    <!-- Generator: Sketch 49.2 (51160) - http://www.bohemiancoding.com/sketch -->
    <title>Outline</title>
    <desc>Created with Sketch.</desc>
    <defs></defs>
    <g id="Discovery-(v2)" stroke="none" stroke-width="1" fill="none" fill-rule="evenodd">
        <g id="Background" transform="translate(-1366.000000, -773.000000)" fill="#3FAE2A" fill-rule="nonzero">
            <g id="dash" transform="translate(1181.000000, 500.000000)">
                <g id="Outline" transform="translate(185.000000, 273.000000)">
                    <path d="M16,2 L16,4 L12,4 L12,2 L16,2 Z M6,2 L6,8 L2,8 L2,2 L6,2 Z M16,10 L16,16 L12,16 L12,10 L16,10 Z M6,14 L6,16 L2,16 L2,14 L6,14 Z M18,0 L10,0 L10,6 L18,6 L18,0 Z M8,0 L0,0 L0,10 L8,10 L8,0 Z M18,8 L10,8 L10,18 L18,18 L18,8 Z M8,12 L0,12 L0,18 L8,18 L8,12 Z" id="Shape"></path>
                </g>
            </g>
        </g>
    </g>
</svg>