<?xml version="1.0" encoding="UTF-8"?>
<svg width="400px" height="400px" viewBox="0 0 400 400" version="1.1" xmlns="http://www.w3.org/2000/svg" xmlns:xlink="http://www.w3.org/1999/xlink" style="background: #FFFFFF;">
    <!-- Generator: Sketch 49.2 (51160) - http://www.bohemiancoding.com/sketch -->
    <title>Artboard 5</title>
    <desc>Created with Sketch.</desc>
    <defs></defs>
    <g id="Artboard-5" stroke="none" stroke-width="1" fill="none" fill-rule="evenodd">
        <g id="csv-(1)" transform="translate(73.000000, 41.000000)" fill-rule="nonzero">
            <polygon id="Shape" fill="#F7F8F9" points="195.321 7.5 8.342 7.5 8.342 310.688 245.846 310.688 245.846 58.025"></polygon>
            <polygon id="Shape" fill="#3FAE2A" points="203.14 32.763 8.342 32.763 8.342 7.5 195.321 7.5"></polygon>
            <polygon id="Shape" fill="#D1D3D3" points="195.321 58.025 245.846 58.025 195.321 7.5"></polygon>
            <g id="Group" transform="translate(69.000000, 87.000000)" fill="#3FAE2A">
                <rect id="Rectangle-path" x="41.457" y="0.844" width="33.274" height="15.418"></rect>
                <rect id="Rectangle-path" x="82.102" y="0.844" width="33.273" height="15.418"></rect>
                <rect id="Rectangle-path" x="41.457" y="23.161" width="33.274" height="15.419"></rect>
                <rect id="Rectangle-path" x="82.102" y="23.161" width="33.273" height="15.419"></rect>
                <rect id="Rectangle-path" x="41.457" y="45.479" width="33.274" height="15.418"></rect>
                <rect id="Rectangle-path" x="82.102" y="45.479" width="33.273" height="15.418"></rect>
                <rect id="Rectangle-path" x="0.812" y="45.479" width="33.273" height="15.418"></rect>
                <rect id="Rectangle-path" x="41.457" y="67.798" width="33.274" height="15.418"></rect>
                <rect id="Rectangle-path" x="82.102" y="67.798" width="33.273" height="15.418"></rect>
                <rect id="Rectangle-path" x="0.812" y="67.798" width="33.273" height="15.418"></rect>
                <polygon id="Shape" points="33.588 36.662 23.547 36.662 17.285 26.621 11.089 36.662 1.268 36.662 11.924 20.227 1.906 4.54 11.53 4.54 17.33 14.472 22.911 4.54 32.82 4.54 22.647 20.909"></polygon>
            </g>
            <path d="M251.149,52.723 L200.625,2.197 C199.218,0.79 197.311,0 195.321,0 L8.342,0 C4.2,0 0.842,3.358 0.842,7.5 L0.842,310.688 C0.842,314.831 4.2,318.188 8.342,318.188 L245.846,318.188 C249.988,318.188 253.346,314.831 253.346,310.688 L253.346,58.025 C253.346,56.036 252.556,54.129 251.149,52.723 Z M202.821,25.606 L227.739,50.525 L202.821,50.525 L202.821,25.606 Z M15.842,15 L187.821,15 L187.821,25.263 L15.842,25.263 L15.842,15 Z M238.346,303.188 L15.842,303.188 L15.842,40.263 L187.821,40.263 L187.821,58.026 C187.821,62.169 191.179,65.526 195.321,65.526 L238.345,65.526 L238.346,303.188 Z M90.372,235.484 C92.341,235.484 94.181,235.759 95.895,236.31 C97.608,236.86 99.323,237.537 101.036,238.341 L104.877,228.47 C100.307,226.29 95.515,225.2 90.499,225.2 C85.908,225.2 81.914,226.179 78.519,228.137 C75.123,230.094 72.52,232.892 70.711,236.532 C68.901,240.172 67.997,244.392 67.997,249.195 C67.997,256.877 69.864,262.748 73.599,266.81 C77.334,270.872 82.703,272.904 89.706,272.904 C94.594,272.904 98.974,272.047 102.846,270.334 L102.846,259.732 C100.899,260.537 98.963,261.224 97.038,261.795 C95.112,262.366 93.123,262.651 91.071,262.651 C84.278,262.651 80.883,258.187 80.883,249.258 C80.883,244.963 81.719,241.593 83.39,239.149 C85.062,236.707 87.39,235.484 90.372,235.484 Z M123.603,236.088 C124.343,235.517 125.528,235.231 127.158,235.231 C130.31,235.231 134.055,236.226 138.392,238.215 L142.233,228.534 C137.239,226.312 132.341,225.201 127.539,225.201 C122.101,225.201 117.826,226.397 114.717,228.788 C111.606,231.18 110.051,234.512 110.051,238.785 C110.051,241.07 110.416,243.049 111.146,244.721 C111.876,246.393 112.998,247.873 114.51,249.164 C116.022,250.455 118.292,251.788 121.319,253.163 C124.662,254.666 126.719,255.66 127.492,256.146 C128.263,256.632 128.825,257.114 129.174,257.59 C129.524,258.066 129.698,258.621 129.698,259.256 C129.698,260.272 129.263,261.103 128.396,261.747 C127.528,262.393 126.164,262.716 124.301,262.716 C122.143,262.716 119.774,262.372 117.192,261.684 C114.611,260.997 112.125,260.039 109.734,258.812 L109.734,269.984 C111.998,271.063 114.177,271.82 116.272,272.254 C118.367,272.688 120.959,272.904 124.047,272.904 C127.75,272.904 130.977,272.285 133.728,271.048 C136.478,269.81 138.584,268.075 140.043,265.843 C141.504,263.611 142.233,261.056 142.233,258.178 C142.233,255.047 141.456,252.449 139.9,250.386 C138.345,248.323 135.568,246.393 131.569,244.594 C127.4,242.69 124.845,241.378 123.904,240.658 C122.963,239.939 122.492,239.125 122.492,238.215 C122.491,237.368 122.861,236.659 123.603,236.088 Z M169.021,249.514 C168.682,250.784 168.291,252.529 167.847,254.75 C167.402,256.972 167.106,258.823 166.958,260.305 C166.831,258.252 166.111,254.614 164.8,249.387 L158.484,225.868 L144.392,225.868 L159.531,272.269 L174.29,272.269 L189.492,225.868 L175.465,225.868 L169.021,249.514 Z" id="Shape" fill="#0B132B"></path>
        </g>
    </g>
</svg>