<?xml version="1.0" encoding="UTF-8"?>
<svg width="20px" height="20px" viewBox="0 0 20 20" version="1.1" xmlns="http://www.w3.org/2000/svg" xmlns:xlink="http://www.w3.org/1999/xlink">
    <!-- Generator: Sketch 49.2 (51160) - http://www.bohemiancoding.com/sketch -->
    <title>Outline</title>
    <desc>Created with Sketch.</desc>
    <defs></defs>
    <g id="Discovery-(v2)" stroke="none" stroke-width="1" fill="none" fill-rule="evenodd">
        <g id="Background" transform="translate(-1420.000000, -873.000000)" fill="#949599" fill-rule="nonzero">
            <g id="exempt" transform="translate(1418.000000, 871.000000)">
                <g id="Outline" transform="translate(2.000000, 2.000000)">
                    <path d="M10,0 C4.48,0 0,4.48 0,10 C0,15.52 4.48,20 10,20 C15.52,20 20,15.52 20,10 C20,4.48 15.52,0 10,0 Z M10,18 C5.58,18 2,14.42 2,10 C2,8.15 2.63,6.45 3.69,5.1 L14.9,16.31 C13.55,17.37 11.85,18 10,18 Z M16.31,14.9 L5.1,3.69 C6.45,2.63 8.15,2 10,2 C14.42,2 18,5.58 18,10 C18,11.85 17.37,13.55 16.31,14.9 Z" id="Shape"></path>
                </g>
            </g>
        </g>
    </g>
</svg>