<?xml version="1.0" encoding="UTF-8"?>
<svg width="16px" height="20px" viewBox="0 0 16 20" version="1.1" xmlns="http://www.w3.org/2000/svg" xmlns:xlink="http://www.w3.org/1999/xlink">
    <!-- Generator: Sketch 49.2 (51160) - http://www.bohemiancoding.com/sketch -->
    <title>Shape</title>
    <desc>Created with Sketch.</desc>
    <defs></defs>
    <g id="Discovery-(v2)" stroke="none" stroke-width="1" fill="none" fill-rule="evenodd">
        <g id="Background" transform="translate(-1535.000000, -870.000000)" fill="#949599" fill-rule="nonzero">
            <g id="outline-notifications-24px" transform="translate(1531.000000, 868.000000)">
                <g id="Outline" transform="translate(4.000000, 2.000000)">
                    <path d="M8,20 C9.1,20 10,19.1 10,18 L6,18 C6,19.1 6.9,20 8,20 Z M14,14 L14,9 C14,5.93 12.37,3.36 9.5,2.68 L9.5,2 C9.5,1.17 8.83,0.5 8,0.5 C7.17,0.5 6.5,1.17 6.5,2 L6.5,2.68 C3.64,3.36 2,5.92 2,9 L2,14 L0,16 L0,17 L16,17 L16,16 L14,14 Z M12,15 L4,15 L4,9 C4,6.52 5.51,4.5 8,4.5 C10.49,4.5 12,6.52 12,9 L12,15 Z" id="Shape"></path>
                </g>
            </g>
        </g>
    </g>
</svg>