<?xml version="1.0" encoding="UTF-8"?>
<svg width="400px" height="400px" viewBox="0 0 400 400" version="1.1" xmlns="http://www.w3.org/2000/svg" xmlns:xlink="http://www.w3.org/1999/xlink" style="background: #FFFFFF;">
    <!-- Generator: Sketch 49.2 (51160) - http://www.bohemiancoding.com/sketch -->
    <title>Artboard 5</title>
    <desc>Created with Sketch.</desc>
    <defs></defs>
    <g id="Artboard-5" stroke="none" stroke-width="1" fill="none" fill-rule="evenodd">
        <g id="csv-(1)" transform="translate(61.000000, 25.000000)" fill-rule="nonzero">
            <polygon id="Shape" fill="#F7F8F9" points="214.302038 8.22884013 9.15266458 8.22884013 9.15266458 340.880251 269.736991 340.880251 269.736991 63.6637931"></polygon>
            <polygon id="Shape" fill="#3FAE2A" points="222.880878 35.9468652 9.15266458 35.9468652 9.15266458 8.22884013 214.302038 8.22884013"></polygon>
            <polygon id="Shape" fill="#D1D3D3" points="214.302038 63.6637931 269.736991 63.6637931 214.302038 8.22884013"></polygon>
            <g id="Group" transform="translate(75.705329, 95.454545)" fill="#3FAE2A">
                <rect id="Rectangle-path" x="45.4857367" y="0.926018809" width="36.5075235" height="16.9163009"></rect>
                <rect id="Rectangle-path" x="90.0805643" y="0.926018809" width="36.5064263" height="16.9163009"></rect>
                <rect id="Rectangle-path" x="45.4857367" y="25.4117555" width="36.5075235" height="16.9173981"></rect>
                <rect id="Rectangle-path" x="90.0805643" y="25.4117555" width="36.5064263" height="16.9173981"></rect>
                <rect id="Rectangle-path" x="45.4857367" y="49.8985893" width="36.5075235" height="16.9163009"></rect>
                <rect id="Rectangle-path" x="90.0805643" y="49.8985893" width="36.5064263" height="16.9163009"></rect>
                <rect id="Rectangle-path" x="0.890909091" y="49.8985893" width="36.5064263" height="16.9163009"></rect>
                <rect id="Rectangle-path" x="45.4857367" y="74.3865204" width="36.5075235" height="16.9163009"></rect>
                <rect id="Rectangle-path" x="90.0805643" y="74.3865204" width="36.5064263" height="16.9163009"></rect>
                <rect id="Rectangle-path" x="0.890909091" y="74.3865204" width="36.5064263" height="16.9163009"></rect>
                <polygon id="Shape" points="36.8520376 40.2247649 25.8352665 40.2247649 18.9647335 29.2079937 12.1666144 40.2247649 1.39122257 40.2247649 13.0827586 22.1926332 2.09122257 4.98119122 12.6504702 4.98119122 19.0141066 15.8783699 25.1374608 4.98119122 36.0094044 4.98119122 24.8478056 22.9409091"></polygon>
            </g>
            <path d="M275.555329,57.8465517 L220.121473,2.41050157 C218.577743,0.86677116 216.485423,0 214.302038,0 L9.15266458,0 C4.60815047,0 0.923824451,3.68432602 0.923824451,8.22884013 L0.923824451,340.880251 C0.923824451,345.425862 4.60815047,349.109091 9.15266458,349.109091 L269.736991,349.109091 C274.281505,349.109091 277.965831,345.425862 277.965831,340.880251 L277.965831,63.6637931 C277.965831,61.4815047 277.09906,59.389185 275.555329,57.8465517 Z M222.530878,28.0943574 L249.870376,55.434953 L222.530878,55.434953 L222.530878,28.0943574 Z M17.3815047,16.4576803 L206.073197,16.4576803 L206.073197,27.7180251 L17.3815047,27.7180251 L17.3815047,16.4576803 Z M261.50815,332.651411 L17.3815047,332.651411 L17.3815047,44.1757053 L206.073197,44.1757053 L206.073197,63.6648903 C206.073197,68.2105016 209.757524,71.8937304 214.302038,71.8937304 L261.507053,71.8937304 L261.50815,332.651411 Z M99.154232,258.368025 C101.314577,258.368025 103.333386,258.669749 105.21395,259.274295 C107.093417,259.877743 108.975078,260.620533 110.854545,261.502665 L115.068809,250.672414 C110.054702,248.280564 104.797022,247.084639 99.2935737,247.084639 C94.2564263,247.084639 89.8742947,248.158777 86.149373,250.307053 C82.4233542,252.454232 79.5673981,255.524138 77.5826019,259.517868 C75.5967085,263.511599 74.6048589,268.141693 74.6048589,273.411442 C74.6048589,281.839969 76.6532915,288.281505 80.7512539,292.738245 C84.8492163,297.194984 90.7399687,299.424451 98.423511,299.424451 C103.78652,299.424451 108.592163,298.484169 112.840439,296.604702 L112.840439,284.972414 C110.704232,285.855643 108.580094,286.609404 106.468025,287.235893 C104.354859,287.862382 102.172571,288.175078 99.9211599,288.175078 C92.4680251,288.175078 88.7431034,283.277273 88.7431034,273.480564 C88.7431034,268.768182 89.6603448,265.07069 91.4937304,262.389185 C93.3282132,259.709875 95.8824451,258.368025 99.154232,258.368025 Z M135.614577,259.030721 C136.426489,258.404232 137.726646,258.090439 139.515047,258.090439 C142.973354,258.090439 147.082288,259.182132 151.840752,261.36442 L156.055016,250.742633 C150.575705,248.304702 145.201724,247.085737 139.933072,247.085737 C133.966614,247.085737 129.276176,248.397962 125.865047,251.021317 C122.451724,253.645768 120.745611,257.301567 120.745611,261.989812 C120.745611,264.496865 121.146082,266.668182 121.947022,268.502665 C122.747962,270.337147 123.978997,271.960972 125.637931,273.377429 C127.296865,274.793887 129.787461,276.256426 133.108621,277.765047 C136.776489,279.414107 139.033386,280.504702 139.881505,281.037931 C140.727429,281.57116 141.344044,282.1 141.726959,282.622257 C142.110972,283.144514 142.301881,283.753448 142.301881,284.450157 C142.301881,285.56489 141.824608,286.476646 140.873354,287.183229 C139.921003,287.892006 138.424451,288.246395 136.380408,288.246395 C134.012696,288.246395 131.41348,287.868966 128.580564,287.114107 C125.748746,286.360345 123.02116,285.309248 120.397806,283.963009 L120.397806,296.22069 C122.881818,297.404545 125.272571,298.23511 127.57116,298.711285 C129.869749,299.187461 132.713636,299.424451 136.101724,299.424451 C140.164577,299.424451 143.705172,298.745298 146.723511,297.388088 C149.740752,296.029781 152.051411,294.126176 153.652194,291.677273 C155.255172,289.22837 156.055016,286.425078 156.055016,283.267398 C156.055016,279.832132 155.202508,276.981661 153.495298,274.718182 C151.789185,272.454702 148.74232,270.337147 144.354702,268.363323 C139.780564,266.274295 136.977273,264.834796 135.944828,264.044828 C134.912382,263.255956 134.395611,262.362853 134.395611,261.36442 C134.394514,260.43511 134.80047,259.65721 135.614577,259.030721 Z M185.446238,273.761442 C185.074295,275.154859 184.645298,277.069436 184.15815,279.50627 C183.669906,281.944201 183.345141,283.975078 183.182759,285.601097 C183.043417,283.348589 182.253448,279.357053 180.815047,273.6221 L173.885266,247.817555 L158.423824,247.817555 L175.034013,298.727743 L191.227273,298.727743 L207.906583,247.817555 L192.516458,247.817555 L185.446238,273.761442 Z" id="Shape" fill="#0B132B"></path>
        </g>
    </g>
</svg>