<?xml version="1.0" encoding="UTF-8"?>
<svg width="18px" height="20px" viewBox="0 0 18 20" version="1.1" xmlns="http://www.w3.org/2000/svg" xmlns:xlink="http://www.w3.org/1999/xlink">
    <!-- Generator: Sketch 49.2 (51160) - http://www.bohemiancoding.com/sketch -->
    <title>Outline</title>
    <desc>Created with Sketch.</desc>
    <defs></defs>
    <g id="Discovery-(v2)" stroke="none" stroke-width="1" fill="none" fill-rule="evenodd">
        <g id="Background" transform="translate(-1467.000000, -873.000000)" fill="#949599" fill-rule="nonzero">
            <g id="trans" transform="translate(1464.000000, 871.000000)">
                <g id="Outline" transform="translate(3.000000, 2.000000)">
                    <g id="Group">
                        <path d="M16.5,1.5 L15,0 L13.5,1.5 L12,0 L10.5,1.5 L9,0 L7.5,1.5 L6,0 L4.5,1.5 L3,0 L1.5,1.5 L0,0 L0,20 L1.5,18.5 L3,20 L4.5,18.5 L6,20 L7.5,18.5 L9,20 L10.5,18.5 L12,20 L13.5,18.5 L15,20 L16.5,18.5 L18,20 L18,0 L16.5,1.5 Z M16,17.09 L2,17.09 L2,2.91 L16,2.91 L16,17.09 Z" id="Shape"></path>
                        <rect id="Rectangle-path" x="3" y="13" width="12" height="2"></rect>
                        <rect id="Rectangle-path" x="3" y="9" width="12" height="2"></rect>
                        <rect id="Rectangle-path" x="3" y="5" width="12" height="2"></rect>
                    </g>
                </g>
            </g>
        </g>
    </g>
</svg>